<?xml version="1.0" encoding="UTF-8" standalone="no"?>
<!-- Generator: Adobe Illustrator 26.1.0, SVG Export Plug-In . SVG Version: 6.00 Build 0)  -->

<svg
   version="1.1"
   id="レイヤー_1"
   x="0px"
   y="0px"
   viewBox="0 0 212.74605 244.84091"
   xml:space="preserve"
   sodipodi:docname="spongix.svg"
   width="212.74605"
   height="244.84091"
   inkscape:version="1.1.1 (3bf5ae0d25, 2021-09-20)"
   xmlns:inkscape="http://www.inkscape.org/namespaces/inkscape"
   xmlns:sodipodi="http://sodipodi.sourceforge.net/DTD/sodipodi-0.dtd"
   xmlns="http://www.w3.org/2000/svg"
   xmlns:svg="http://www.w3.org/2000/svg"><defs
   id="defs76" /><sodipodi:namedview
   id="namedview74"
   pagecolor="#ffffff"
   bordercolor="#666666"
   borderopacity="1.0"
   inkscape:pageshadow="2"
   inkscape:pageopacity="0.0"
   inkscape:pagecheckerboard="0"
   showgrid="false"
   fit-margin-top="0"
   fit-margin-left="0"
   fit-margin-right="0"
   fit-margin-bottom="0"
   inkscape:zoom="1.1022727"
   inkscape:cx="-146.51546"
   inkscape:cy="127.01031"
   inkscape:window-width="5120"
   inkscape:window-height="1418"
   inkscape:window-x="0"
   inkscape:window-y="0"
   inkscape:window-maximized="1"
   inkscape:current-layer="レイヤー_1" />
<style
   type="text/css"
   id="style2">
	.st0{fill:#F5D74C;stroke:#40220F;stroke-width:9;stroke-linecap:round;stroke-linejoin:round;stroke-miterlimit:10;}
	.st1{fill:#40220F;stroke:#40220F;stroke-linecap:round;stroke-linejoin:round;stroke-miterlimit:10;}
	.st2{fill:#873D24;}
	.st3{fill:none;stroke:#40220F;stroke-width:7;stroke-linecap:round;stroke-linejoin:round;stroke-miterlimit:10;}
	.st4{fill:#F4BC1E;}
	.st5{fill:url(#SVGID_1_);}
	.st6{fill:none;stroke:#49C0E8;stroke-width:2.8618;stroke-miterlimit:10;}
	.st7{fill:none;stroke:#49C0E8;stroke-width:1.4309;stroke-miterlimit:10;}
	.st8{fill:none;stroke:#49C0E8;stroke-width:2;stroke-miterlimit:10;}
</style>
<path
   class="st0"
   d="m 38.079992,92.16091 c 0,0 -6.45,-12.65 3.1,-22.71 9.55,-10.06 20.65,-7.23 20.65,-7.23 0,0 -2.58,-12.39 13.94,-16.52 16.52,-4.13 20.13,6.19 20.13,6.19 0,0 1.78,-10.5 17.549998,-10.84 12.13,-0.26 14.45,9.81 14.45,9.81 0,0 9.27,-12.07 23.74,-6.19 16.52,6.71 11.35,17.55 11.35,17.55 0,0 12.65,-5.42 21.16,3.1 8.52,8.52 6.19,19.1 6.19,19.1 0,0 10.32,0.77 12.39,11.35 2.06,10.58 -3.61,16.52 -3.61,16.52 0,0 11.35,4.9 8.77,18.06 -2.58,13.16 -9.29,14.97 -9.29,14.97 0,0 8.77,10.84 3.61,21.68 -5.16,10.84 -18.06,12.39 -18.06,12.39 0,0 4.13,9.81 -7.23,18.06 -11.35,8.26 -18.58,2.06 -18.58,2.06 0,0 -3.61,13.42 -19.1,14.45 -15.48,1.03 -23.23,-7.74 -23.23,-7.74 0,0 -7.48,10.58 -23.739998,5.68 -16.26,-4.9 -15.48,-13.94 -15.48,-13.94 0,0 -12.9,8.77 -26.32,-3.1 -13.42,-11.87 -4.65,-22.71 -4.65,-22.71 0,0 -15.79,4.96 -21.68,-15.48 -4.39,-15.23 4.65,-22.71 4.65,-22.71 0,0 -15.23,-5.09 -8.77,-29.42 3.35,-12.64 18.06,-12.38 18.06,-12.38 z"
   id="path4" />
<path
   class="st1"
   d="m 84.789992,94.74091 c 0,0 -1.29,3.23 -1.03,4.65 0.26,1.42 0.39,3.35 0.77,4.13 0.39,0.77 3.1,2.32 4.13,2.06 1.03,-0.26 2.06,-0.13 2.84,-3.87 0.77,-3.74 0.13,-4.65 -0.26,-5.94 -0.39,-1.29 -1.55,-2.58 -1.55,-2.58 0,0 -3.87,-3.1 -4.9,1.55 z"
   id="path6" />
<path
   class="st1"
   d="m 133.03999,90.09091 c 1.92,-0.21 3.74,1.94 3.87,3.61 0.13,1.67 1.42,5.29 0,6.71 -1.42,1.42 -3.23,1.81 -4.65,0.77 -1.42,-1.03 -3.1,-3.35 -2.84,-5.16 0.27,-1.8 0.14,-5.54 3.62,-5.93 z"
   id="path8" />
<polygon
   class="st2"
   points="290.68,453.64 296.09,463.1 307.26,463.05 319.69,440.83 333.08,462.81 354.72,462.68 306.22,379.5 295.49,399.01 308.63,421.71 "
   id="polygon10"
   transform="translate(-192.84001,-268.94909)" />
<g
   id="g18"
   transform="translate(-192.84001,-268.94909)">
	<path
   class="st1"
   d="m 304.72,373.75 c -2.84,0.13 -4.26,0.52 -4.65,2.84 -0.39,2.32 0.39,3.1 1.55,3.87 1.16,0.77 2.84,1.03 5.16,0.52 2.32,-0.52 3.74,-1.03 3.87,-2.58 0.13,-1.55 -1.94,-3.35 -2.58,-3.87 -0.64,-0.52 -3.35,-0.78 -3.35,-0.78 z"
   id="path12" />
	<path
   class="st3"
   d="m 304.46,379.94 c 0,0 0.9,3.87 -2.32,6.45 -3.23,2.58 -8.9,3.1 -11.61,-1.81"
   id="path14" />
	<path
   class="st3"
   d="m 322.01,380.72 c 0,0 0.39,5.42 -5.68,5.68 -6.06,0.26 -9.55,-5.42 -9.55,-5.42"
   id="path16" />
</g>
<path
   class="st3"
   d="m 82.199992,134.99091 c 0,0 17.42,-11.1 21.419998,-0.52 4,10.58 -11.099998,16.52 -11.099998,16.52"
   id="path20" />
<path
   class="st3"
   d="m 149.59999,125.42091 c 0,0 -16.9,-8.52 -19.61,5.68 -2.71,14.19 15.23,14.71 15.23,14.71"
   id="path22" />
<polygon
   class="st1"
   points="277.75,356.59 280.08,362.78 284.21,356.85 287.3,358.91 281.11,365.62 277.63,363.69 274.92,358.65 "
   id="polygon24"
   transform="translate(-192.84001,-268.94909)" />
<polygon
   class="st1"
   points="326.01,363.3 332.98,356.85 329.88,354.78 325.88,359.04 323.95,353.75 319.56,355.3 323.33,360.54 "
   id="polygon26"
   transform="translate(-192.84001,-268.94909)" />
<g
   id="g52"
   transform="translate(-192.84001,-268.94909)">
	<circle
   class="st4"
   cx="361.5"
   cy="368.85001"
   r="9.5500002"
   id="circle28" />
	<path
   class="st4"
   d="m 383.23,404.46 c 0,7.34 -5.95,13.29 -13.29,13.29 -7.34,0 -13.29,-5.95 -13.29,-13.29 0,-7.34 5.95,-13.29 13.29,-13.29 7.34,0 13.29,5.95 13.29,13.29 z"
   id="path30" />
	<circle
   class="st4"
   cx="264.72"
   cy="428.45999"
   r="5.1599998"
   id="circle32" />
	<circle
   class="st4"
   cx="275.82001"
   cy="331.66"
   r="5.1599998"
   id="circle34" />
	<circle
   class="st4"
   cx="242.28"
   cy="411.69"
   r="10.77"
   id="circle36" />
	<circle
   class="st4"
   cx="321.75"
   cy="465.35999"
   r="3.8699999"
   id="circle38" />
	<circle
   class="st4"
   cx="367.42999"
   cy="346.91"
   r="3.8699999"
   id="circle40" />
	<circle
   class="st4"
   cx="357.10999"
   cy="440.32999"
   r="9.8100004"
   id="circle42" />
	<circle
   class="st4"
   cx="252.91"
   cy="353.48999"
   r="13.22"
   id="circle44" />
	<circle
   class="st4"
   cx="276.07999"
   cy="450.64999"
   r="9.8100004"
   id="circle46" />
	<circle
   class="st4"
   cx="242.2"
   cy="383.82001"
   r="4.9000001"
   id="circle48" />
	<circle
   class="st4"
   cx="339.04001"
   cy="330.91"
   r="8.7700005"
   id="circle50" />
</g>
<radialGradient
   id="SVGID_1_"
   cx="309.77609"
   cy="505.2948"
   r="89.0392"
   gradientTransform="matrix(0.9997,-0.0263,0.00401597,0.1526,-194.76201,167.38561)"
   gradientUnits="userSpaceOnUse">
	<stop
   offset="0"
   style="stop-color:#5C5C5C"
   id="stop54" />
	<stop
   offset="0.5701"
   style="stop-color:#FFFFFF"
   id="stop56" />
	<stop
   offset="0.9712"
   style="stop-color:#FFFFFF"
   id="stop58" />
</radialGradient>
<ellipse
   class="st5"
   cx="116.93999"
   cy="236.34091"
   rx="55"
   ry="8.5"
   id="ellipse61"
   style="fill:url(#SVGID_1_)" />
<circle
   class="st6"
   cx="192.86998"
   cy="19.3209"
   r="17.889999"
   id="circle63" />
<circle
   class="st7"
   cx="180.55"
   cy="31.690926"
   r="8.9399996"
   id="circle65" />
<circle
   class="st8"
   cx="12.48"
   cy="62.760902"
   r="11.48"
   id="circle67" />
<circle
   class="st8"
   cx="18.359989"
   cy="72.300911"
   r="5.7399998"
   id="circle69" />
<circle
   class="st8"
   cx="133.34999"
   cy="16.83091"
   r="5.7399998"
   id="circle71" />
</svg>
